<svg width="24" height="24" viewBox="0 0 24 24" fill="none" xmlns="http://www.w3.org/2000/svg">
<path fill-rule="evenodd" clip-rule="evenodd" d="M7.04183 7.04185C7.23709 6.84658 7.55368 6.84658 7.74894 7.04185L16.9581 16.251C17.1534 16.4463 17.1534 16.7629 16.9581 16.9581C16.7628 17.1534 16.4463 17.1534 16.251 16.9581L7.04183 7.74895C6.84657 7.55369 6.84657 7.23711 7.04183 7.04185Z" fill="white" fill-opacity="0.866667"/>
<path fill-rule="evenodd" clip-rule="evenodd" d="M16.9581 7.04183C17.1534 7.23709 17.1534 7.55368 16.9581 7.74894L7.74892 16.9581C7.55366 17.1534 7.23708 17.1534 7.04182 16.9581C6.84656 16.7628 6.84656 16.4463 7.04182 16.251L16.251 7.04183C16.4462 6.84657 16.7628 6.84657 16.9581 7.04183Z" fill="white" fill-opacity="0.866667"/>
</svg>
