<svg width="512" height="512" viewBox="0 0 512 512" fill="none" xmlns="http://www.w3.org/2000/svg">
<path fill-rule="evenodd" clip-rule="evenodd" d="M436.601 152.019L256.144 70L75.4097 152.019H436.601ZM62 173.095H450V221.628H431.683V244.651H338.702V221.628H303.456V244.651H210.475V221.628H175.23V244.651H82.2494V221.628H62V173.095ZM62 441L450 441V409.361H429.751V394.352H336.77V409.361H301.525V394.352H208.544V409.361H173.298V394.352H80.3173V409.361H62V441ZM163.571 265.046H93.9015V374.104H163.571V265.046ZM222.131 265.046H291.801V374.104H222.131V265.046ZM420.03 265.046H350.361V374.104H420.03V265.046Z" fill="white"/>
</svg>
